<?xml version="1.0" encoding="utf-8"?>
<!-- Generator: Adobe Illustrator 16.0.0, SVG Export Plug-In . SVG Version: 6.00 Build 0)  -->
<!DOCTYPE svg PUBLIC "-//W3C//DTD SVG 1.1//EN" "http://www.w3.org/Graphics/SVG/1.1/DTD/svg11.dtd">
<svg version="1.1" id="Capa_1" xmlns="http://www.w3.org/2000/svg" xmlns:xlink="http://www.w3.org/1999/xlink" x="0px" y="0px"
	 width="400px" height="400px" viewBox="0 0 400 400" enable-background="new 0 0 400 400" xml:space="preserve">
<g>
	<path d="M12.073,341.335v-12.548h1.702v12.548H12.073z"/>
	<path d="M26.005,341.335l-6.715-10.688c0.01,0.291,0.028,0.578,0.046,0.863c0.01,0.246,0.021,0.506,0.031,0.771
		c0.007,0.271,0.012,0.514,0.012,0.716v8.338h-1.514v-12.548h1.978l6.786,10.76l-0.053-0.875c-0.012-0.247-0.025-0.519-0.033-0.817
		c-0.013-0.29-0.022-0.572-0.022-0.838v-8.229h1.534v12.548H26.005z"/>
	<path d="M41.784,337.871c0,0.528-0.102,1.018-0.307,1.46c-0.205,0.448-0.523,0.833-0.95,1.155
		c-0.426,0.325-0.966,0.577-1.616,0.756c-0.651,0.183-1.419,0.274-2.312,0.274c-1.56,0-2.779-0.275-3.649-0.819
		c-0.875-0.55-1.432-1.337-1.667-2.369l1.646-0.332c0.082,0.33,0.21,0.625,0.384,0.893c0.17,0.265,0.406,0.495,0.699,0.688
		c0.295,0.195,0.658,0.344,1.091,0.452c0.436,0.104,0.956,0.157,1.56,0.157c0.502,0,0.97-0.043,1.388-0.127
		c0.421-0.087,0.786-0.221,1.088-0.399c0.303-0.178,0.539-0.406,0.709-0.686c0.167-0.286,0.254-0.618,0.254-1.014
		c0-0.408-0.095-0.742-0.282-0.998c-0.186-0.256-0.449-0.467-0.788-0.633c-0.338-0.165-0.741-0.304-1.211-0.416
		c-0.469-0.115-0.988-0.239-1.557-0.366c-0.353-0.076-0.704-0.162-1.055-0.254c-0.355-0.092-0.695-0.201-1.017-0.33
		c-0.323-0.125-0.629-0.277-0.915-0.449c-0.283-0.174-0.531-0.378-0.738-0.621c-0.21-0.241-0.37-0.52-0.491-0.834
		c-0.12-0.319-0.177-0.685-0.177-1.105c0-0.589,0.121-1.101,0.359-1.526c0.242-0.419,0.575-0.768,1.004-1.042
		c0.427-0.274,0.932-0.472,1.512-0.599c0.581-0.126,1.211-0.188,1.889-0.188c0.778,0,1.443,0.062,1.996,0.184
		c0.552,0.12,1.019,0.303,1.398,0.547c0.379,0.247,0.684,0.543,0.911,0.903c0.229,0.359,0.412,0.777,0.549,1.252l-1.675,0.295
		c-0.083-0.303-0.202-0.572-0.362-0.812c-0.156-0.237-0.361-0.435-0.618-0.596s-0.567-0.28-0.931-0.362
		c-0.364-0.086-0.794-0.13-1.287-0.13c-0.583,0-1.071,0.053-1.466,0.156c-0.396,0.105-0.713,0.245-0.953,0.422
		c-0.241,0.181-0.415,0.39-0.516,0.632c-0.106,0.241-0.158,0.498-0.158,0.78c0,0.371,0.094,0.68,0.28,0.921
		c0.19,0.24,0.442,0.439,0.763,0.602c0.32,0.157,0.692,0.29,1.115,0.398c0.421,0.105,0.869,0.214,1.344,0.322
		c0.385,0.088,0.771,0.178,1.154,0.27c0.382,0.094,0.748,0.204,1.1,0.329c0.348,0.131,0.676,0.278,0.982,0.452
		c0.308,0.172,0.573,0.383,0.798,0.629c0.226,0.251,0.403,0.545,0.532,0.883C41.718,337.017,41.784,337.414,41.784,337.871z"/>
	<path d="M49.944,330.174v11.161h-1.691v-11.161h-4.309v-1.387h10.316v1.387H49.944z"/>
	<path d="M57.271,341.335v-12.548h1.702v12.548H57.271z"/>
	<path d="M67.982,330.174v11.161h-1.693v-11.161h-4.312v-1.387h10.315v1.387H67.982z"/>
	<path d="M80.133,341.517c-0.688,0-1.342-0.092-1.961-0.277c-0.616-0.183-1.157-0.47-1.625-0.858
		c-0.467-0.391-0.836-0.884-1.109-1.482c-0.272-0.591-0.408-1.301-0.408-2.121v-7.99h1.7v7.846c0,0.64,0.087,1.178,0.256,1.618
		c0.167,0.444,0.403,0.801,0.708,1.08c0.302,0.279,0.661,0.485,1.07,0.614c0.415,0.128,0.867,0.188,1.362,0.188
		c0.485,0,0.947-0.064,1.379-0.195c0.432-0.13,0.812-0.337,1.138-0.625c0.328-0.284,0.583-0.657,0.771-1.114
		c0.19-0.461,0.283-1.023,0.283-1.679v-7.732h1.689v7.83c0,0.834-0.135,1.562-0.414,2.177c-0.275,0.615-0.65,1.122-1.124,1.53
		c-0.477,0.403-1.035,0.702-1.672,0.897C81.54,341.418,80.857,341.517,80.133,341.517z"/>
	<path d="M94.121,330.174v11.161h-1.693v-11.161h-4.312v-1.387H98.43v1.387H94.121z"/>
	<path d="M112.748,335.003c0,0.982-0.138,1.871-0.423,2.672c-0.281,0.804-0.689,1.487-1.226,2.058
		c-0.533,0.57-1.186,1.012-1.957,1.319c-0.772,0.31-1.648,0.465-2.628,0.465c-1.033,0-1.94-0.164-2.718-0.485
		c-0.777-0.324-1.422-0.777-1.941-1.353c-0.515-0.582-0.904-1.271-1.164-2.067c-0.264-0.794-0.393-1.663-0.393-2.608
		c0-0.979,0.136-1.863,0.409-2.651c0.272-0.792,0.674-1.463,1.204-2.018c0.527-0.56,1.178-0.984,1.954-1.285
		c0.775-0.301,1.666-0.449,2.664-0.449c1.002,0,1.887,0.151,2.663,0.457c0.772,0.302,1.427,0.729,1.951,1.288
		c0.525,0.556,0.923,1.231,1.197,2.022C112.613,333.16,112.748,334.038,112.748,335.003z M111.012,335.003
		c0-0.757-0.097-1.438-0.289-2.058c-0.193-0.618-0.479-1.145-0.856-1.585c-0.377-0.44-0.843-0.779-1.401-1.016
		s-1.205-0.354-1.938-0.354c-0.747,0-1.401,0.118-1.967,0.354c-0.563,0.236-1.032,0.575-1.41,1.016
		c-0.376,0.44-0.658,0.967-0.846,1.585c-0.186,0.619-0.281,1.301-0.281,2.058c0,0.754,0.097,1.444,0.292,2.073
		c0.191,0.625,0.479,1.167,0.855,1.62c0.378,0.454,0.846,0.809,1.407,1.06c0.56,0.254,1.205,0.377,1.938,0.377
		c0.785,0,1.458-0.125,2.026-0.381c0.567-0.257,1.033-0.612,1.397-1.063c0.363-0.454,0.637-1,0.811-1.628
		C110.924,336.433,111.012,335.745,111.012,335.003z"/>
	<path d="M132.812,334.935c0,1.045-0.156,1.965-0.471,2.761c-0.315,0.798-0.744,1.467-1.289,2.005
		c-0.548,0.539-1.195,0.945-1.94,1.22c-0.743,0.278-1.549,0.415-2.409,0.415h-4.692v-12.548h4.149c0.968,0,1.86,0.121,2.675,0.36
		c0.818,0.241,1.521,0.611,2.106,1.112c0.59,0.502,1.049,1.14,1.378,1.912C132.648,332.942,132.812,333.864,132.812,334.935z
		 M131.101,334.935c0-0.852-0.12-1.577-0.364-2.18c-0.242-0.602-0.583-1.097-1.023-1.484c-0.439-0.385-0.966-0.669-1.579-0.851
		c-0.612-0.179-1.282-0.274-2.013-0.274h-2.413v9.827h2.797c0.66,0,1.27-0.108,1.831-0.319c0.562-0.214,1.046-0.529,1.457-0.951
		c0.409-0.425,0.73-0.948,0.959-1.579C130.99,336.493,131.101,335.764,131.101,334.935z"/>
	<path d="M136.097,341.335v-12.548h9.519v1.387h-7.819v4.028h7.283v1.374h-7.283v4.37h8.185v1.389H136.097z"/>
	<path d="M155.154,341.335v-12.548h9.521v1.387h-7.819v4.028h7.285v1.374h-7.285v4.37h8.184v1.389H155.154z"/>
	<path d="M178.067,337.871c0,0.528-0.104,1.018-0.307,1.46c-0.206,0.448-0.521,0.833-0.951,1.155
		c-0.426,0.325-0.963,0.577-1.617,0.756c-0.649,0.183-1.419,0.274-2.308,0.274c-1.563,0-2.779-0.275-3.652-0.819
		c-0.873-0.55-1.431-1.337-1.667-2.369l1.646-0.332c0.083,0.33,0.213,0.625,0.385,0.893c0.174,0.265,0.404,0.495,0.699,0.688
		c0.293,0.195,0.656,0.344,1.092,0.452c0.434,0.104,0.952,0.157,1.559,0.157c0.503,0,0.966-0.043,1.388-0.127
		c0.42-0.087,0.783-0.221,1.087-0.399c0.3-0.178,0.537-0.406,0.705-0.686c0.17-0.286,0.257-0.618,0.257-1.014
		c0-0.408-0.094-0.742-0.281-0.998c-0.187-0.256-0.447-0.467-0.786-0.633c-0.339-0.165-0.745-0.304-1.211-0.416
		c-0.472-0.115-0.989-0.239-1.56-0.366c-0.35-0.076-0.704-0.162-1.055-0.254c-0.353-0.092-0.695-0.201-1.017-0.33
		c-0.324-0.125-0.625-0.277-0.915-0.449c-0.283-0.174-0.53-0.378-0.738-0.621c-0.209-0.241-0.372-0.52-0.49-0.834
		c-0.12-0.319-0.178-0.685-0.178-1.105c0-0.589,0.121-1.101,0.362-1.526c0.242-0.419,0.576-0.768,1.004-1.042
		c0.425-0.274,0.929-0.472,1.51-0.599c0.582-0.126,1.212-0.188,1.888-0.188c0.779,0,1.443,0.062,1.998,0.184
		c0.55,0.12,1.018,0.303,1.397,0.547c0.379,0.247,0.683,0.543,0.914,0.903c0.228,0.359,0.41,0.777,0.547,1.252l-1.675,0.295
		c-0.083-0.303-0.203-0.572-0.36-0.812c-0.158-0.237-0.364-0.435-0.621-0.596c-0.256-0.161-0.567-0.28-0.931-0.362
		c-0.364-0.086-0.794-0.13-1.287-0.13c-0.583,0-1.069,0.053-1.465,0.156c-0.396,0.105-0.714,0.245-0.953,0.422
		c-0.24,0.181-0.412,0.39-0.515,0.632c-0.105,0.241-0.156,0.498-0.156,0.78c0,0.371,0.092,0.68,0.279,0.921
		c0.189,0.24,0.441,0.439,0.764,0.602c0.32,0.157,0.692,0.29,1.114,0.398c0.421,0.105,0.868,0.214,1.343,0.322
		c0.386,0.088,0.771,0.178,1.154,0.27c0.385,0.094,0.749,0.204,1.1,0.329c0.349,0.131,0.677,0.278,0.985,0.452
		c0.305,0.172,0.569,0.383,0.794,0.629c0.227,0.251,0.404,0.545,0.533,0.883C178.002,337.017,178.067,337.414,178.067,337.871z"/>
	<path d="M186.229,330.174v11.161h-1.695v-11.161h-4.309v-1.387h10.315v1.387H186.229z"/>
	<path d="M198.377,341.517c-0.689,0-1.341-0.092-1.96-0.277c-0.612-0.183-1.154-0.47-1.622-0.858
		c-0.468-0.391-0.833-0.884-1.11-1.482c-0.274-0.591-0.408-1.301-0.408-2.121v-7.99h1.702v7.846c0,0.64,0.081,1.178,0.251,1.618
		c0.174,0.444,0.405,0.801,0.706,1.08c0.305,0.279,0.669,0.485,1.077,0.614c0.415,0.128,0.863,0.188,1.358,0.188
		c0.489,0,0.947-0.064,1.381-0.195c0.432-0.13,0.813-0.337,1.141-0.625c0.324-0.284,0.582-0.657,0.77-1.114
		c0.19-0.461,0.28-1.023,0.28-1.679v-7.732h1.693v7.83c0,0.834-0.138,1.562-0.415,2.177s-0.652,1.122-1.123,1.53
		c-0.479,0.403-1.034,0.702-1.673,0.897C199.786,341.418,199.106,341.517,198.377,341.517z"/>
	<path d="M218.259,334.935c0,1.045-0.154,1.965-0.476,2.761c-0.317,0.798-0.742,1.467-1.291,2.005
		c-0.545,0.539-1.188,0.945-1.937,1.22c-0.742,0.278-1.548,0.415-2.411,0.415h-4.693v-12.548h4.151c0.967,0,1.859,0.121,2.679,0.36
		c0.813,0.241,1.519,0.611,2.102,1.112c0.595,0.502,1.053,1.14,1.381,1.912C218.095,332.942,218.259,333.864,218.259,334.935z
		 M216.543,334.935c0-0.852-0.117-1.577-0.365-2.18c-0.24-0.602-0.582-1.097-1.02-1.484c-0.444-0.385-0.963-0.669-1.575-0.851
		c-0.612-0.179-1.288-0.274-2.017-0.274h-2.415v9.827h2.796c0.662,0,1.273-0.108,1.829-0.319c0.565-0.214,1.051-0.529,1.462-0.951
		c0.411-0.425,0.732-0.948,0.956-1.579C216.433,336.493,216.543,335.764,216.543,334.935z"/>
	<path d="M221.728,341.335v-12.548h1.692v12.548H221.728z"/>
	<path d="M239.337,335.003c0,0.982-0.141,1.871-0.421,2.672c-0.281,0.804-0.692,1.487-1.225,2.058
		c-0.538,0.57-1.188,1.012-1.964,1.319c-0.772,0.31-1.642,0.465-2.622,0.465c-1.033,0-1.939-0.164-2.723-0.485
		c-0.775-0.324-1.425-0.777-1.939-1.353c-0.519-0.582-0.906-1.271-1.164-2.067c-0.264-0.794-0.398-1.663-0.398-2.608
		c0-0.979,0.145-1.863,0.412-2.651c0.274-0.792,0.676-1.463,1.203-2.018c0.529-0.56,1.179-0.984,1.961-1.285
		c0.769-0.301,1.659-0.449,2.658-0.449c1.004,0,1.894,0.151,2.667,0.457c0.769,0.302,1.424,0.729,1.946,1.288
		c0.524,0.556,0.926,1.231,1.203,2.022C239.2,333.16,239.337,334.038,239.337,335.003z M237.604,335.003
		c0-0.757-0.097-1.438-0.294-2.058c-0.194-0.618-0.481-1.145-0.854-1.585c-0.377-0.44-0.843-0.779-1.401-1.016
		c-0.562-0.236-1.204-0.354-1.94-0.354c-0.742,0-1.397,0.118-1.963,0.354c-0.562,0.236-1.033,0.575-1.415,1.016
		c-0.374,0.44-0.651,0.967-0.843,1.585c-0.187,0.619-0.284,1.301-0.284,2.058c0,0.754,0.101,1.444,0.298,2.073
		c0.191,0.625,0.475,1.167,0.85,1.62c0.378,0.454,0.85,0.809,1.411,1.06c0.552,0.254,1.204,0.377,1.937,0.377
		c0.776,0,1.455-0.125,2.027-0.381c0.565-0.257,1.027-0.612,1.391-1.063c0.365-0.454,0.64-1,0.816-1.628
		C237.514,336.433,237.604,335.745,237.604,335.003z"/>
	<path d="M252.448,337.871c0,0.528-0.101,1.018-0.305,1.46c-0.203,0.448-0.519,0.833-0.949,1.155
		c-0.428,0.325-0.964,0.577-1.615,0.756c-0.646,0.183-1.425,0.274-2.314,0.274c-1.56,0-2.773-0.275-3.649-0.819
		c-0.873-0.55-1.429-1.337-1.662-2.369l1.642-0.332c0.083,0.33,0.215,0.625,0.389,0.893c0.166,0.265,0.404,0.495,0.692,0.688
		c0.298,0.195,0.661,0.344,1.097,0.452c0.432,0.104,0.95,0.157,1.552,0.157c0.509,0,0.97-0.043,1.395-0.127
		c0.418-0.087,0.783-0.221,1.084-0.399c0.304-0.178,0.542-0.406,0.705-0.686c0.174-0.286,0.259-0.618,0.259-1.014
		c0-0.408-0.091-0.742-0.282-0.998c-0.184-0.256-0.448-0.467-0.785-0.633c-0.345-0.165-0.742-0.304-1.211-0.416
		c-0.469-0.115-0.99-0.239-1.562-0.366c-0.345-0.076-0.698-0.162-1.053-0.254c-0.352-0.092-0.696-0.201-1.017-0.33
		c-0.325-0.125-0.626-0.277-0.914-0.449c-0.283-0.174-0.531-0.378-0.739-0.621c-0.2-0.241-0.371-0.52-0.487-0.834
		c-0.117-0.319-0.178-0.685-0.178-1.105c0-0.589,0.12-1.101,0.357-1.526c0.238-0.419,0.579-0.768,1.004-1.042
		c0.429-0.274,0.93-0.472,1.515-0.599c0.583-0.126,1.211-0.188,1.89-0.188c0.776,0,1.438,0.062,1.994,0.184
		c0.549,0.12,1.017,0.303,1.401,0.547c0.378,0.247,0.683,0.543,0.91,0.903c0.23,0.359,0.414,0.777,0.548,1.252l-1.676,0.295
		c-0.083-0.303-0.204-0.572-0.357-0.812c-0.157-0.237-0.368-0.435-0.622-0.596s-0.562-0.28-0.931-0.362
		c-0.367-0.086-0.793-0.13-1.291-0.13c-0.581,0-1.062,0.053-1.465,0.156c-0.391,0.105-0.709,0.245-0.95,0.422
		c-0.236,0.181-0.407,0.39-0.515,0.632c-0.11,0.241-0.157,0.498-0.157,0.78c0,0.371,0.091,0.68,0.285,0.921
		c0.184,0.24,0.434,0.439,0.755,0.602c0.318,0.157,0.692,0.29,1.114,0.398c0.425,0.105,0.87,0.214,1.348,0.322
		c0.385,0.088,0.77,0.178,1.154,0.27c0.381,0.094,0.749,0.204,1.101,0.329c0.348,0.131,0.672,0.278,0.986,0.452
		c0.305,0.172,0.565,0.383,0.793,0.629c0.228,0.251,0.401,0.545,0.528,0.883C252.392,337.017,252.448,337.414,252.448,337.871z"/>
	<path d="M271.514,337.871c0,0.528-0.107,1.018-0.308,1.46c-0.208,0.448-0.526,0.833-0.954,1.155
		c-0.425,0.325-0.963,0.577-1.615,0.756c-0.648,0.183-1.418,0.274-2.312,0.274c-1.565,0-2.776-0.275-3.648-0.819
		c-0.876-0.55-1.433-1.337-1.666-2.369l1.649-0.332c0.083,0.33,0.207,0.625,0.381,0.893c0.174,0.265,0.404,0.495,0.699,0.688
		c0.291,0.195,0.655,0.344,1.091,0.452c0.431,0.104,0.952,0.157,1.559,0.157c0.505,0,0.963-0.043,1.388-0.127
		c0.425-0.087,0.782-0.221,1.087-0.399c0.301-0.178,0.538-0.406,0.709-0.686c0.171-0.286,0.254-0.618,0.254-1.014
		c0-0.408-0.09-0.742-0.283-0.998c-0.185-0.256-0.449-0.467-0.783-0.633c-0.339-0.165-0.746-0.304-1.218-0.416
		c-0.469-0.115-0.983-0.239-1.556-0.366c-0.351-0.076-0.702-0.162-1.057-0.254c-0.351-0.092-0.688-0.201-1.014-0.33
		c-0.321-0.125-0.628-0.277-0.913-0.449c-0.284-0.174-0.528-0.378-0.746-0.621c-0.2-0.241-0.363-0.52-0.487-0.834
		c-0.114-0.319-0.178-0.685-0.178-1.105c0-0.589,0.124-1.101,0.364-1.526c0.241-0.419,0.575-0.768,1-1.042
		c0.429-0.274,0.937-0.472,1.516-0.599c0.582-0.126,1.211-0.188,1.89-0.188c0.776,0,1.442,0.062,1.994,0.184
		c0.555,0.12,1.02,0.303,1.4,0.547c0.378,0.247,0.683,0.543,0.91,0.903c0.228,0.359,0.408,0.777,0.552,1.252l-1.68,0.295
		c-0.08-0.303-0.197-0.572-0.36-0.812c-0.157-0.237-0.365-0.435-0.619-0.596c-0.25-0.161-0.565-0.28-0.929-0.362
		c-0.365-0.086-0.793-0.13-1.285-0.13c-0.582,0-1.077,0.053-1.465,0.156c-0.398,0.105-0.71,0.245-0.954,0.422
		c-0.236,0.181-0.414,0.39-0.518,0.632c-0.097,0.241-0.157,0.498-0.157,0.78c0,0.371,0.094,0.68,0.281,0.921
		c0.187,0.24,0.444,0.439,0.759,0.602c0.324,0.157,0.695,0.29,1.114,0.398c0.428,0.105,0.879,0.214,1.351,0.322
		c0.382,0.088,0.766,0.178,1.151,0.27c0.384,0.094,0.749,0.204,1.097,0.329c0.354,0.131,0.679,0.278,0.982,0.452
		c0.312,0.172,0.576,0.383,0.804,0.629c0.224,0.251,0.401,0.545,0.528,0.883C271.443,337.017,271.514,337.414,271.514,337.871z"/>
	<path d="M279.771,341.517c-0.692,0-1.345-0.092-1.96-0.277c-0.622-0.183-1.157-0.47-1.622-0.858
		c-0.472-0.391-0.84-0.884-1.117-1.482c-0.268-0.591-0.404-1.301-0.404-2.121v-7.99h1.706v7.846c0,0.64,0.08,1.178,0.25,1.618
		c0.164,0.444,0.405,0.801,0.702,1.08c0.308,0.279,0.666,0.485,1.077,0.614c0.412,0.128,0.866,0.188,1.358,0.188
		c0.488,0,0.946-0.064,1.382-0.195c0.431-0.13,0.812-0.337,1.14-0.625c0.321-0.284,0.582-0.657,0.77-1.114
		c0.188-0.461,0.281-1.023,0.281-1.679v-7.732h1.688v7.83c0,0.834-0.134,1.562-0.411,2.177s-0.652,1.122-1.121,1.53
		c-0.484,0.403-1.04,0.702-1.675,0.897C281.173,341.418,280.493,341.517,279.771,341.517z"/>
	<path d="M298.549,332.564c0,0.547-0.091,1.055-0.271,1.526c-0.18,0.471-0.454,0.884-0.812,1.229
		c-0.357,0.344-0.806,0.622-1.348,0.829c-0.538,0.197-1.171,0.298-1.887,0.298h-3.688v4.889h-1.7v-12.548h5.278
		c0.749,0,1.392,0.091,1.943,0.274c0.552,0.179,1.014,0.433,1.385,0.762c0.364,0.326,0.643,0.728,0.823,1.198
		C298.458,331.485,298.549,332.003,298.549,332.564z M296.836,332.579c0-0.794-0.24-1.397-0.729-1.812
		c-0.485-0.409-1.218-0.621-2.191-0.621h-3.374v4.958h3.444c0.98,0,1.702-0.221,2.16-0.647
		C296.608,334.02,296.836,333.397,296.836,332.579z"/>
	<path d="M301.92,341.335v-12.548h9.522v1.387h-7.82v4.028h7.289v1.374h-7.289v4.37h8.182v1.389H301.92z"/>
	<path d="M323.868,341.335l-3.258-5.21h-3.91v5.21h-1.702v-12.548h5.91c0.709,0,1.341,0.083,1.887,0.249
		c0.555,0.16,1.017,0.394,1.385,0.705c0.378,0.306,0.661,0.683,0.858,1.129c0.191,0.446,0.292,0.949,0.292,1.509
		c0,0.395-0.061,0.786-0.174,1.172c-0.11,0.387-0.298,0.741-0.549,1.061c-0.248,0.323-0.565,0.596-0.95,0.829
		c-0.385,0.229-0.854,0.394-1.388,0.488l3.562,5.406H323.868z M323.617,332.396c0-0.379-0.063-0.709-0.19-0.99
		c-0.134-0.279-0.321-0.512-0.572-0.7c-0.251-0.187-0.549-0.324-0.906-0.418c-0.36-0.094-0.763-0.142-1.214-0.142H316.7v4.637h4.104
		c0.488,0,0.91-0.065,1.268-0.183c0.354-0.122,0.646-0.291,0.873-0.504c0.234-0.215,0.404-0.462,0.512-0.759
		C323.567,333.049,323.617,332.731,323.617,332.396z"/>
	<path d="M329.271,341.335v-12.548h1.702v12.548H329.271z"/>
	<path d="M346.884,335.003c0,0.982-0.145,1.871-0.425,2.672c-0.277,0.804-0.687,1.487-1.225,2.058s-1.188,1.012-1.961,1.319
		c-0.772,0.31-1.645,0.465-2.621,0.465c-1.037,0-1.946-0.164-2.724-0.485c-0.769-0.324-1.421-0.777-1.942-1.353
		c-0.516-0.582-0.903-1.271-1.161-2.067c-0.264-0.794-0.395-1.663-0.395-2.608c0-0.979,0.141-1.863,0.411-2.651
		c0.278-0.792,0.673-1.463,1.201-2.018c0.528-0.56,1.181-0.984,1.957-1.285c0.775-0.301,1.665-0.449,2.665-0.449
		c1.001,0,1.887,0.151,2.663,0.457c0.775,0.302,1.425,0.729,1.946,1.288c0.528,0.556,0.923,1.231,1.2,2.022
		C346.746,333.16,346.884,334.038,346.884,335.003z M345.147,335.003c0-0.757-0.097-1.438-0.291-2.058
		c-0.191-0.618-0.475-1.145-0.853-1.585c-0.382-0.44-0.844-0.779-1.405-1.016c-0.555-0.236-1.2-0.354-1.934-0.354
		c-0.746,0-1.401,0.118-1.967,0.354c-0.568,0.236-1.036,0.575-1.415,1.016c-0.374,0.44-0.655,0.967-0.846,1.585
		c-0.184,0.619-0.277,1.301-0.277,2.058c0,0.754,0.097,1.444,0.291,2.073c0.191,0.625,0.475,1.167,0.855,1.62
		c0.372,0.454,0.847,0.809,1.402,1.06c0.564,0.254,1.21,0.377,1.943,0.377c0.778,0,1.451-0.125,2.026-0.381
		c0.565-0.257,1.03-0.612,1.396-1.063c0.363-0.454,0.632-1,0.809-1.628C345.057,336.433,345.147,335.745,345.147,335.003z"/>
	<path d="M359.038,341.335l-3.265-5.21h-3.91v5.21h-1.702v-12.548h5.903c0.719,0,1.349,0.083,1.896,0.249
		c0.546,0.16,1.01,0.394,1.389,0.705c0.37,0.306,0.661,0.683,0.853,1.129c0.197,0.446,0.291,0.949,0.291,1.509
		c0,0.395-0.058,0.786-0.171,1.172c-0.117,0.387-0.301,0.741-0.548,1.061c-0.251,0.323-0.572,0.596-0.951,0.829
		c-0.387,0.229-0.849,0.394-1.395,0.488l3.566,5.406H359.038z M358.784,332.396c0-0.379-0.064-0.709-0.194-0.99
		c-0.13-0.279-0.321-0.512-0.568-0.7c-0.248-0.187-0.556-0.324-0.91-0.418c-0.357-0.094-0.763-0.142-1.211-0.142h-4.037v4.637h4.111
		c0.484,0,0.902-0.065,1.26-0.183c0.362-0.122,0.65-0.291,0.881-0.504c0.224-0.215,0.392-0.462,0.505-0.759
		C358.727,333.049,358.784,332.731,358.784,332.396z"/>
	<path d="M364.249,341.335v-12.548h9.522v1.387h-7.82v4.028h7.285v1.374h-7.285v4.37h8.188v1.389H364.249z"/>
	<path d="M387.157,337.871c0,0.528-0.101,1.018-0.305,1.46c-0.2,0.448-0.515,0.833-0.946,1.155c-0.429,0.325-0.97,0.577-1.619,0.756
		c-0.646,0.183-1.418,0.274-2.312,0.274c-1.558,0-2.779-0.275-3.652-0.819c-0.873-0.55-1.431-1.337-1.662-2.369l1.649-0.332
		c0.08,0.33,0.207,0.625,0.381,0.893c0.171,0.265,0.404,0.495,0.699,0.688c0.294,0.195,0.659,0.344,1.09,0.452
		c0.433,0.104,0.954,0.157,1.56,0.157c0.501,0,0.97-0.043,1.388-0.127c0.422-0.087,0.785-0.221,1.091-0.399
		c0.298-0.178,0.541-0.406,0.698-0.686c0.175-0.286,0.261-0.618,0.261-1.014c0-0.408-0.093-0.742-0.28-0.998
		c-0.184-0.256-0.451-0.467-0.79-0.633c-0.337-0.165-0.739-0.304-1.207-0.416c-0.472-0.115-0.993-0.239-1.562-0.366
		c-0.348-0.076-0.699-0.162-1.058-0.254c-0.351-0.092-0.689-0.201-1.017-0.33c-0.321-0.125-0.625-0.277-0.909-0.449
		c-0.285-0.174-0.536-0.378-0.736-0.621c-0.21-0.241-0.378-0.52-0.492-0.834c-0.12-0.319-0.177-0.685-0.177-1.105
		c0-0.589,0.117-1.101,0.357-1.526c0.238-0.419,0.576-0.768,1.007-1.042c0.422-0.274,0.93-0.472,1.509-0.599
		c0.585-0.126,1.207-0.188,1.89-0.188c0.776,0,1.438,0.062,1.993,0.184c0.552,0.12,1.021,0.303,1.401,0.547
		c0.382,0.247,0.687,0.543,0.91,0.903c0.233,0.359,0.412,0.777,0.552,1.252l-1.676,0.295c-0.087-0.303-0.207-0.572-0.361-0.812
		c-0.156-0.237-0.364-0.435-0.619-0.596c-0.257-0.161-0.561-0.28-0.929-0.362c-0.365-0.086-0.8-0.13-1.291-0.13
		c-0.582,0-1.067,0.053-1.462,0.156c-0.395,0.105-0.712,0.245-0.956,0.422c-0.241,0.181-0.412,0.39-0.516,0.632
		c-0.104,0.241-0.157,0.498-0.157,0.78c0,0.371,0.09,0.68,0.281,0.921c0.187,0.24,0.444,0.439,0.763,0.602
		c0.317,0.157,0.688,0.29,1.113,0.398c0.421,0.105,0.873,0.214,1.349,0.322c0.381,0.088,0.766,0.178,1.153,0.27
		c0.378,0.094,0.746,0.204,1.097,0.329c0.348,0.131,0.683,0.278,0.987,0.452c0.304,0.172,0.565,0.383,0.792,0.629
		c0.228,0.251,0.401,0.545,0.528,0.883C387.101,337.017,387.157,337.414,387.157,337.871z"/>
</g>
<g>
	<path fill="#30417C" d="M13.906,304.204c-0.508,0-0.955-0.19-1.338-0.573c-0.383-0.383-0.573-0.827-0.573-1.335V256.19
		c0-0.508,0.189-0.952,0.573-1.341c0.383-0.376,0.83-0.566,1.338-0.566h25.727c2.203,0,4.209,0.28,6.017,0.86
		c1.802,0.567,3.425,1.407,4.868,2.511c1.484,1.193,2.622,2.518,3.409,3.979c0.781,1.466,1.176,3.154,1.176,5.064
		c0,2.336-0.509,4.391-1.529,6.177c-1.018,1.779-2.609,3.229-4.774,4.327c2.207,0.896,3.884,1.998,5.031,3.313
		c2.12,2.46,3.183,5.626,3.183,9.485c0,4.291-1.633,7.769-4.903,10.444c-3.098,2.509-7.132,3.759-12.098,3.759H13.906z
		 M28.995,265.677v7.961h3.888c1.613,0,2.916-0.407,3.912-1.208c1-0.812,1.5-1.697,1.5-2.678c0-1.097-0.478-2.059-1.433-2.863
		c-0.955-0.808-2.26-1.212-3.917-1.212H28.995z M28.995,283.314v9.489h4.394c1.785,0,3.258-0.423,4.428-1.272
		c1.167-0.85,1.75-1.976,1.75-3.376c0-1.484-0.552-2.666-1.655-3.532c-1.104-0.87-2.547-1.309-4.331-1.309H28.995z"/>
	<path fill="#30417C" d="M67.838,304.204c-0.468,0-0.861-0.19-1.178-0.573c-0.319-0.383-0.479-0.827-0.479-1.335V256.19
		c0-0.508,0.16-0.952,0.479-1.341c0.317-0.376,0.71-0.566,1.178-0.566h11.842c0.468,0,0.86,0.19,1.179,0.566
		c0.319,0.389,0.478,0.833,0.478,1.341v46.105c0,0.508-0.159,0.952-0.478,1.335s-0.711,0.573-1.179,0.573H67.838z"/>
	<path fill="#30417C" d="M108.145,289.429h24.071c0.51,0,0.965,0.183,1.366,0.541c0.406,0.364,0.607,0.817,0.607,1.376v10.95
		c0,0.508-0.19,0.952-0.573,1.335c-0.381,0.383-0.827,0.573-1.334,0.573H92.482c-0.554,0-1.022-0.19-1.402-0.573
		c-0.384-0.383-0.575-0.827-0.575-1.335V256.19c0-0.508,0.183-0.952,0.542-1.341c0.36-0.376,0.82-0.566,1.37-0.566h13.818
		c0.508,0,0.963,0.19,1.37,0.566c0.405,0.389,0.604,0.833,0.604,1.341L108.145,289.429z"/>
	<path fill="#30417C" d="M173.094,254.283c7.597,0,13.774,2.312,18.534,6.941c4.706,4.582,7.064,10.591,7.064,18.017
		c0,7.26-2.375,13.243-7.131,17.961c-4.713,4.664-10.783,7.002-18.21,7.002h-28.017c-0.555,0-1.022-0.19-1.404-0.573
		c-0.382-0.383-0.575-0.827-0.575-1.335V256.19c0-0.508,0.193-0.952,0.575-1.341c0.381-0.376,0.849-0.566,1.404-0.566H173.094z
		 M179.146,271.919c-1.488-1.655-3.673-2.486-6.561-2.486h-11.208v19.615h10.7c3.056,0,5.369-0.812,6.939-2.452
		c1.569-1.636,2.359-4.064,2.359-7.289C181.375,276.035,180.629,273.573,179.146,271.919z"/>
	<path fill="#30417C" d="M242.495,256.129c0-0.509,0.197-0.962,0.578-1.339s0.846-0.574,1.401-0.574h13.114
		c0.509,0,0.957,0.197,1.335,0.574c0.385,0.377,0.578,0.83,0.578,1.339v32.347c0,6.155-2.358,10.51-7.067,13.052
		c-4.331,2.289-10.612,3.441-18.848,3.441c-8.492,0-14.8-1.152-18.917-3.441c-4.539-2.542-6.807-7.109-6.807-13.69v-31.708
		c0-0.509,0.187-0.962,0.568-1.339c0.385-0.377,0.847-0.574,1.401-0.574h13.055c0.552,0,1.021,0.197,1.401,0.574
		c0.378,0.377,0.568,0.83,0.568,1.339v26.233c0,2.93,0.693,5.011,2.074,6.237c1.378,1.233,3.683,1.85,6.909,1.85
		c3.055,0,5.265-0.645,6.62-1.945c1.361-1.287,2.034-3.404,2.034-6.328V256.129z"/>
	<path fill="#30417C" d="M300.763,274.627c1.188,1.631,2.401,3.301,3.629,4.999V256.19c0-0.508,0.194-0.952,0.575-1.341
		c0.385-0.376,0.847-0.566,1.402-0.566h12.412c0.555,0,1.026,0.19,1.401,0.566c0.388,0.389,0.575,0.833,0.575,1.341v46.105
		c0,0.508-0.188,0.952-0.575,1.335c-0.375,0.383-0.847,0.573-1.401,0.573h-14.263c-0.21,0-0.487-0.076-0.826-0.224
		c-0.334-0.152-0.599-0.329-0.763-0.544l-17.96-24.195v23.055c0,0.508-0.188,0.952-0.573,1.335
		c-0.381,0.383-0.846,0.573-1.397,0.573H270.58c-0.508,0-0.95-0.19-1.338-0.573c-0.381-0.383-0.568-0.827-0.568-1.335V256.19
		c0-0.508,0.188-0.952,0.568-1.341c0.388-0.376,0.83-0.566,1.338-0.566h14.138c0.252,0,0.562,0.082,0.924,0.251
		c0.361,0.177,0.585,0.364,0.669,0.575c1.866,2.545,3.683,5.019,5.442,7.416c1.763,2.4,3.555,4.807,5.381,7.227
		C298.365,271.371,299.575,272.992,300.763,274.627z"/>
	<path fill="#30417C" d="M351.576,288.857c2.716,2.293,6.472,3.441,11.268,3.441c3.823,0,6.73-0.385,8.724-1.148v-3.188h-6.68
		c-0.559,0-1.026-0.189-1.404-0.57c-0.381-0.386-0.572-0.851-0.572-1.397v-8.471c0-0.555,0.191-1.009,0.572-1.371
		c0.378-0.358,0.846-0.542,1.404-0.542h20.373c0.555,0,1.021,0.184,1.401,0.542c0.384,0.362,0.575,0.816,0.575,1.371v22.35
		c0,0.381-0.145,0.758-0.415,1.111c-0.277,0.363-0.602,0.604-0.989,0.731c-3.098,0.976-6.637,1.765-10.604,2.36
		c-3.97,0.595-8.265,0.893-12.894,0.893c-10.488,0-18.506-2.03-24.072-6.086c-5.556-4.054-8.342-10.303-8.342-18.747
		c0-8.279,2.874-14.837,8.596-19.677c5.736-4.755,13.229-7.133,22.483-7.133c4.499,0,8.553,0.288,12.162,0.863
		c3.608,0.568,6.516,1.197,8.72,1.879c0.344,0.081,0.646,0.283,0.926,0.6c0.271,0.315,0.432,0.65,0.476,0.986l1.087,8.854
		c0.083,0.723-0.13,1.303-0.639,1.748c-0.513,0.444-1.127,0.566-1.85,0.349c-2.292-0.675-5.051-1.334-8.274-1.968
		c-1.573-0.298-3.151-0.534-4.747-0.702c-1.589-0.172-3.194-0.258-4.81-0.258c-5.004,0-9.037,1.272-12.091,3.824
		c-2.931,2.546-4.398,5.902-4.398,10.058C347.562,283.467,348.903,286.562,351.576,288.857z"/>
</g>
<path fill="#6A86B2" d="M300.709,73.783c-31.631-10.227-65.643-15.412-101.094-15.412c-35.449,0-69.462,5.185-101.092,15.412
	l-2.371,0.766v2.493v95.83v2.296v35.175v2.491l2.371,0.768c31.628,10.227,65.64,15.411,101.092,15.411
	c35.452,0,69.463-5.185,101.094-15.411l2.372-0.768v-2.491V175.15v-2.274V77.042v-2.493L300.709,73.783z M299.656,172.875v2.274
	v35.194c-30.126,9.739-64.082,15.245-100.042,15.245c-35.957,0-69.915-5.506-100.039-15.245v-35.175v-2.296v-95.83
	c30.124-9.739,64.082-15.245,100.039-15.245c35.959,0,69.916,5.506,100.042,15.245V172.875z"/>
<path fill="#6B86B2" d="M290.247,173.916c-1.686-0.159-3.382-0.318-5.084-0.478c-6.807-0.639-13.729-1.29-20.737-1.947
	c-3.523-0.342-7.079-0.558-10.654-0.748c-0.288,9.802-4.184,17.806-11.752,24.006c-7.455,6.044-17.172,9.055-29.133,9.055h-62.874
	c-1.231,0-2.298-0.457-3.222-1.379c-0.924-0.924-1.386-1.996-1.386-3.222V170.75c-3.556,0.188-7.091,0.403-10.599,0.743
	c-7.009,0.657-13.928,1.308-20.737,1.948c-4.918,0.361-9.736,1.077-14.493,1.728v35.175c30.124,9.739,64.082,15.245,100.039,15.245
	c35.959,0,69.916-5.506,100.042-15.245V175.15c-1.459-0.19-2.917-0.381-4.389-0.572C293.602,174.357,291.93,174.137,290.247,173.916
	z"/>
<path fill="#6B86B2" d="M196.933,176.353c4.298,0,7.84-1.02,10.666-3.067c1.603-1.164,2.729-2.554,3.416-4.153
	c-3.792-0.064-7.578-0.129-11.373-0.193c-4.435,0.075-8.856,0.151-13.284,0.228v7.186H196.933z"/>
<path fill="#4E5685" d="M211.723,166.502c0.052-0.436,0.084-0.881,0.084-1.341c0-3.581-1.331-6.424-3.978-8.518
	c-2.654-2.09-6.134-3.142-10.432-3.142h-11.039v13.022c4.411-0.093,8.816-0.185,13.233-0.279
	C203.641,166.331,207.679,166.417,211.723,166.502z"/>
<path fill="#4E5685" d="M99.576,77.042v95.83c1.366-0.188,2.735-0.381,4.112-0.572c1.668-0.227,3.345-0.455,5.03-0.684
	c1.691-0.165,3.39-0.333,5.098-0.5c6.828-0.671,13.766-1.353,20.793-2.042c3.568-0.359,7.171-0.592,10.795-0.798v-80.1
	c0-1.22,0.462-2.297,1.386-3.221c0.924-0.912,1.991-1.374,3.222-1.374h61.948c5.327,0,10.153,0.681,14.502,2.08
	c4.342,1.361,8.252,3.381,11.733,6.045c3.565,2.869,6.298,6.057,8.198,9.581c1.89,3.529,2.826,7.597,2.826,12.199
	c0,5.62-1.221,10.573-3.672,14.873c-2.452,4.288-6.288,7.778-11.5,10.422c5.312,2.142,9.355,4.813,12.114,7.969
	c4.86,5.642,7.38,12.835,7.616,21.525c3.639,0.208,7.257,0.44,10.844,0.803c7.023,0.688,13.965,1.368,20.791,2.039
	c1.706,0.167,3.408,0.334,5.101,0.501c1.687,0.227,3.361,0.458,5.03,0.684c1.379,0.193,2.746,0.383,4.111,0.574V77.042
	c-30.126-9.739-64.082-15.245-100.042-15.245C163.658,61.797,129.7,67.303,99.576,77.042z"/>
<path fill="#4E5685" d="M205.146,127.282c2.402-1.951,3.606-4.082,3.606-6.443c0-2.65-1.154-4.967-3.465-6.905
	c-2.295-1.938-5.429-2.913-9.433-2.913h-9.497v19.174h9.357C199.605,130.195,202.746,129.213,205.146,127.282z"/>
<path fill="#FFFFFF" d="M211.015,169.132c0.354-0.821,0.597-1.695,0.708-2.63c-4.044-0.085-8.082-0.172-12.131-0.258
	c-4.417,0.094-8.823,0.186-13.233,0.279v2.643c4.428-0.076,8.849-0.152,13.284-0.228
	C203.437,169.003,207.223,169.068,211.015,169.132z"/>
<path fill="#FFFFFF" d="M134.806,171.493c3.507-0.339,7.043-0.555,10.599-0.743v-2.474c-3.625,0.207-7.228,0.439-10.795,0.798
	c-7.027,0.689-13.965,1.372-20.793,2.042c-1.708,0.167-3.407,0.334-5.098,0.5c-1.685,0.229-3.362,0.457-5.03,0.684
	c-1.377,0.19-2.746,0.383-4.112,0.572v2.296c4.756-0.65,9.574-1.366,14.493-1.728C120.878,172.8,127.797,172.15,134.806,171.493z"/>
<path fill="#FFFFFF" d="M290.515,171.618c-1.692-0.167-3.395-0.334-5.101-0.501c-6.826-0.671-13.768-1.35-20.791-2.039
	c-3.587-0.363-7.205-0.596-10.844-0.803c0.012,0.445,0.047,0.874,0.047,1.326c0,0.39-0.045,0.759-0.055,1.143
	c3.575,0.189,7.131,0.406,10.654,0.748c7.008,0.657,13.931,1.308,20.737,1.947c1.702,0.16,3.398,0.319,5.084,0.478
	c1.683,0.221,3.354,0.441,5.021,0.662c1.472,0.191,2.93,0.381,4.389,0.572v-2.274c-1.365-0.19-2.732-0.381-4.111-0.574
	C293.876,172.076,292.201,171.845,290.515,171.618z"/>
<path fill="#FFFFFF" d="M232.337,169.569c-3.613-0.212-7.238-0.166-10.871-0.259c-3.476-0.059-6.967-0.119-10.451-0.178
	c-0.687,1.599-1.813,2.989-3.416,4.153c-2.826,2.047-6.368,3.067-10.666,3.067h-10.574v-7.186c-2.867,0.049-5.742,0.099-8.601,0.147
	c-3.636,0.094-7.278,0.047-10.883,0.257c-3.607,0.201-7.202,0.4-10.782,0.599c-3.577,0.232-7.141,0.393-10.688,0.581v28.454
	c0,1.226,0.462,2.298,1.386,3.222c0.924,0.922,1.991,1.379,3.222,1.379h62.874c11.961,0,21.678-3.011,29.133-9.055
	c7.568-6.2,11.464-14.205,11.752-24.006c-3.532-0.187-7.085-0.348-10.646-0.577C239.541,169.969,235.945,169.769,232.337,169.569z"
	/>
<path fill="#FFFFFF" d="M166.815,167.012c3.625-0.227,7.251-0.194,10.892-0.308c2.875-0.059,5.768-0.121,8.651-0.181v-13.022h11.039
	c4.298,0,7.777,1.052,10.432,3.142c2.646,2.094,3.978,4.937,3.978,8.518c0,0.46-0.032,0.905-0.084,1.341
	c3.271,0.07,6.551,0.139,9.813,0.209c3.643,0.11,7.281,0.077,10.9,0.305c3.623,0.215,7.231,0.431,10.827,0.643
	c3.517,0.242,7.026,0.417,10.516,0.616c-0.236-8.689-2.756-15.883-7.616-21.525c-2.759-3.156-6.803-5.827-12.114-7.969
	c5.212-2.644,9.048-6.134,11.5-10.422c2.451-4.3,3.672-9.253,3.672-14.873c0-4.602-0.937-8.669-2.826-12.199
	c-1.9-3.524-4.633-6.712-8.198-9.581c-3.481-2.664-7.392-4.684-11.733-6.045c-4.349-1.398-9.175-2.08-14.502-2.08h-61.948
	c-1.231,0-2.298,0.462-3.222,1.374c-0.924,0.924-1.386,2.001-1.386,3.221v80.1c3.51-0.2,7.04-0.376,10.578-0.618
	C159.578,167.442,163.193,167.23,166.815,167.012z M186.358,111.021h9.497c4.004,0,7.138,0.975,9.433,2.913
	c2.311,1.938,3.465,4.255,3.465,6.905c0,2.361-1.204,4.492-3.606,6.443c-2.4,1.931-5.542,2.913-9.431,2.913h-9.357V111.021z"/>
<path fill="#FFFFFF" d="M232.437,167.016c-3.619-0.228-7.258-0.194-10.9-0.305c-3.263-0.07-6.542-0.139-9.813-0.209
	c-0.111,0.935-0.354,1.809-0.708,2.63c3.484,0.059,6.976,0.119,10.451,0.178c3.633,0.094,7.258,0.047,10.871,0.259
	c3.608,0.199,7.204,0.399,10.789,0.597c3.561,0.229,7.113,0.391,10.646,0.577c0.01-0.384,0.055-0.753,0.055-1.143
	c0-0.452-0.035-0.881-0.047-1.326c-3.489-0.199-6.999-0.374-10.516-0.616C239.668,167.447,236.06,167.231,232.437,167.016z"/>
<path fill="#FFFFFF" d="M156.092,170.169c3.58-0.199,7.175-0.398,10.782-0.599c3.605-0.21,7.248-0.164,10.883-0.257
	c2.859-0.048,5.734-0.098,8.601-0.147v-2.643c-2.883,0.06-5.776,0.122-8.651,0.181c-3.641,0.114-7.267,0.081-10.892,0.308
	c-3.622,0.218-7.237,0.43-10.833,0.646c-3.538,0.242-7.067,0.418-10.578,0.618v2.474
	C148.951,170.562,152.516,170.401,156.092,170.169z"/>
<line fill="none" stroke="#4E5685" stroke-width="0.75" x1="0.953" y1="315.759" x2="398.278" y2="315.759"/>
</svg>
