<?xml version="1.0" encoding="utf-8"?>
<!-- Generator: Adobe Illustrator 16.0.0, SVG Export Plug-In . SVG Version: 6.00 Build 0)  -->
<!DOCTYPE svg PUBLIC "-//W3C//DTD SVG 1.1//EN" "http://www.w3.org/Graphics/SVG/1.1/DTD/svg11.dtd">
<svg version="1.1" id="Capa_1" xmlns="http://www.w3.org/2000/svg" xmlns:xlink="http://www.w3.org/1999/xlink" x="0px" y="0px"
	 width="480px" height="480px" viewBox="0 0 480 480" enable-background="new 0 0 480 480" xml:space="preserve">
<g>
	<path d="M13.215,410.63v-15.147h2.055v15.147H13.215z"/>
	<path d="M30.034,410.63l-8.106-12.901c0.012,0.352,0.033,0.697,0.056,1.042c0.012,0.297,0.025,0.61,0.038,0.931
		c0.008,0.327,0.014,0.62,0.014,0.864v10.064h-1.828v-15.147h2.388l8.192,12.989l-0.064-1.057c-0.014-0.298-0.03-0.625-0.04-0.986
		c-0.015-0.35-0.026-0.69-0.026-1.012v-9.935h1.852v15.147H30.034z"/>
	<path d="M49.082,406.448c0,0.639-0.123,1.229-0.371,1.763c-0.247,0.541-0.632,1.006-1.146,1.396
		c-0.514,0.392-1.166,0.696-1.951,0.912c-0.786,0.22-1.713,0.331-2.79,0.331c-1.884,0-3.355-0.333-4.405-0.989
		c-1.056-0.664-1.728-1.613-2.013-2.86l1.987-0.4c0.099,0.398,0.254,0.755,0.463,1.078c0.205,0.319,0.491,0.598,0.844,0.83
		c0.356,0.236,0.794,0.416,1.316,0.547c0.527,0.125,1.154,0.189,1.883,0.189c0.606,0,1.171-0.052,1.675-0.153
		c0.509-0.104,0.948-0.267,1.313-0.482c0.366-0.214,0.651-0.49,0.856-0.827c0.202-0.346,0.307-0.747,0.307-1.224
		c0-0.493-0.115-0.896-0.34-1.205c-0.224-0.31-0.542-0.563-0.951-0.764c-0.409-0.199-0.895-0.367-1.462-0.503
		c-0.566-0.139-1.193-0.288-1.879-0.441c-0.425-0.093-0.849-0.196-1.274-0.307c-0.429-0.111-0.839-0.243-1.228-0.398
		c-0.39-0.151-0.76-0.335-1.104-0.543c-0.341-0.21-0.641-0.456-0.89-0.749c-0.253-0.291-0.447-0.628-0.593-1.007
		c-0.144-0.386-0.214-0.826-0.214-1.335c0-0.711,0.146-1.328,0.434-1.843c0.292-0.505,0.693-0.927,1.211-1.258
		c0.516-0.331,1.125-0.569,1.826-0.723c0.702-0.151,1.462-0.227,2.28-0.227c0.939,0,1.742,0.075,2.41,0.222
		c0.667,0.146,1.229,0.366,1.688,0.66c0.458,0.299,0.826,0.656,1.1,1.091c0.277,0.434,0.497,0.938,0.663,1.512l-2.022,0.355
		c-0.1-0.365-0.244-0.69-0.437-0.979c-0.188-0.286-0.435-0.524-0.746-0.719c-0.31-0.195-0.685-0.339-1.124-0.438
		c-0.439-0.104-0.958-0.157-1.553-0.157c-0.705,0-1.293,0.064-1.77,0.189c-0.478,0.127-0.861,0.295-1.151,0.509
		c-0.291,0.218-0.5,0.471-0.623,0.763c-0.127,0.291-0.19,0.602-0.19,0.941c0,0.448,0.113,0.821,0.337,1.112
		c0.23,0.29,0.534,0.53,0.921,0.727c0.387,0.189,0.836,0.35,1.346,0.48c0.509,0.127,1.049,0.259,1.623,0.39
		c0.464,0.105,0.93,0.214,1.393,0.325c0.461,0.113,0.903,0.246,1.328,0.397c0.42,0.157,0.816,0.335,1.186,0.545
		c0.371,0.208,0.691,0.463,0.963,0.76c0.272,0.303,0.487,0.658,0.642,1.065C49.002,405.417,49.082,405.897,49.082,406.448z"/>
	<path d="M58.933,397.157v13.473h-2.042v-13.473h-5.202v-1.675h12.453v1.675H58.933z"/>
	<path d="M67.778,410.63v-15.147h2.055v15.147H67.778z"/>
	<path d="M80.708,397.157v13.473h-2.044v-13.473h-5.206v-1.675h12.452v1.675H80.708z"/>
	<path d="M95.377,410.85c-0.831,0-1.62-0.111-2.367-0.335c-0.744-0.221-1.397-0.567-1.961-1.036
		c-0.563-0.472-1.009-1.067-1.339-1.79c-0.329-0.713-0.493-1.569-0.493-2.561v-9.646h2.052v9.472c0,0.771,0.105,1.422,0.309,1.953
		c0.202,0.536,0.486,0.967,0.854,1.304c0.364,0.337,0.798,0.586,1.292,0.741c0.501,0.155,1.047,0.228,1.645,0.228
		c0.586,0,1.144-0.078,1.665-0.236c0.522-0.157,0.981-0.407,1.375-0.755c0.396-0.343,0.704-0.793,0.93-1.345
		c0.229-0.557,0.342-1.235,0.342-2.026v-9.335h2.039v9.452c0,1.007-0.163,1.886-0.5,2.628c-0.332,0.743-0.785,1.355-1.356,1.848
		c-0.576,0.486-1.249,0.848-2.018,1.084S96.251,410.85,95.377,410.85z"/>
	<path d="M112.263,397.157v13.473h-2.044v-13.473h-5.205v-1.675h12.451v1.675H112.263z"/>
	<path d="M134.749,402.986c0,1.187-0.167,2.259-0.511,3.226c-0.339,0.97-0.832,1.795-1.48,2.483
		c-0.643,0.688-1.431,1.222-2.362,1.593c-0.932,0.374-1.99,0.562-3.173,0.562c-1.247,0-2.343-0.198-3.282-0.586
		c-0.938-0.392-1.717-0.938-2.344-1.633c-0.622-0.702-1.091-1.534-1.405-2.495c-0.318-0.959-0.474-2.009-0.474-3.149
		c0-1.182,0.165-2.249,0.494-3.2c0.329-0.957,0.814-1.767,1.454-2.437c0.637-0.675,1.422-1.188,2.359-1.551
		c0.936-0.363,2.011-0.543,3.216-0.543c1.209,0,2.277,0.184,3.214,0.553c0.932,0.364,1.722,0.879,2.355,1.555
		c0.634,0.671,1.114,1.486,1.445,2.441C134.586,400.762,134.749,401.821,134.749,402.986z M132.654,402.986
		c0-0.913-0.117-1.736-0.349-2.483c-0.233-0.747-0.579-1.383-1.034-1.914c-0.456-0.531-1.018-0.94-1.692-1.226
		c-0.674-0.286-1.455-0.428-2.339-0.428c-0.901,0-1.692,0.142-2.375,0.428c-0.68,0.285-1.246,0.694-1.702,1.226
		c-0.454,0.531-0.794,1.167-1.021,1.914c-0.225,0.747-0.34,1.57-0.34,2.483c0,0.91,0.117,1.744,0.352,2.503
		c0.23,0.755,0.578,1.409,1.032,1.956c0.457,0.548,1.021,0.976,1.699,1.278c0.675,0.307,1.455,0.456,2.339,0.456
		c0.948,0,1.761-0.151,2.446-0.46c0.685-0.311,1.248-0.739,1.687-1.284c0.439-0.549,0.769-1.207,0.979-1.966
		C132.547,404.712,132.654,403.883,132.654,402.986z"/>
	<path d="M158.97,402.903c0,1.262-0.188,2.372-0.568,3.333c-0.38,0.963-0.898,1.771-1.556,2.421
		c-0.661,0.65-1.443,1.141-2.342,1.472c-0.897,0.337-1.87,0.501-2.908,0.501h-5.664v-15.147h5.009c1.169,0,2.246,0.146,3.229,0.436
		c0.987,0.291,1.835,0.737,2.543,1.343c0.712,0.605,1.267,1.375,1.664,2.308C158.773,400.499,158.97,401.611,158.97,402.903z
		 M156.905,402.903c0-1.027-0.145-1.903-0.439-2.631c-0.292-0.727-0.704-1.324-1.234-1.792c-0.531-0.465-1.166-0.808-1.906-1.026
		c-0.739-0.216-1.547-0.331-2.43-0.331h-2.913v11.863h3.376c0.796,0,1.532-0.132,2.209-0.386c0.678-0.259,1.263-0.64,1.759-1.148
		c0.494-0.513,0.881-1.145,1.158-1.906C156.771,404.785,156.905,403.904,156.905,402.903z"/>
	<path d="M162.937,410.63v-15.147h11.491v1.675h-9.439v4.862h8.792v1.659h-8.792v5.275h9.881v1.676H162.937z"/>
	<path d="M185.942,410.63v-15.147h11.494v1.675h-9.439v4.862h8.794v1.659h-8.794v5.275h9.879v1.676H185.942z"/>
	<path d="M213.602,406.448c0,0.639-0.125,1.229-0.371,1.763c-0.249,0.541-0.629,1.006-1.148,1.396
		c-0.515,0.392-1.163,0.696-1.952,0.912c-0.784,0.22-1.713,0.331-2.786,0.331c-1.887,0-3.355-0.333-4.409-0.989
		c-1.054-0.664-1.727-1.613-2.013-2.86l1.988-0.4c0.1,0.398,0.257,0.755,0.465,1.078c0.21,0.319,0.487,0.598,0.844,0.83
		c0.354,0.236,0.792,0.416,1.318,0.547c0.524,0.125,1.149,0.189,1.881,0.189c0.607,0,1.166-0.052,1.676-0.153
		c0.508-0.104,0.946-0.267,1.312-0.482c0.362-0.214,0.649-0.49,0.851-0.827c0.206-0.346,0.31-0.747,0.31-1.224
		c0-0.493-0.114-0.896-0.339-1.205c-0.225-0.31-0.539-0.563-0.949-0.764c-0.41-0.199-0.899-0.367-1.462-0.503
		c-0.57-0.139-1.194-0.288-1.883-0.441c-0.423-0.093-0.85-0.196-1.274-0.307c-0.426-0.111-0.839-0.243-1.228-0.398
		c-0.391-0.151-0.755-0.335-1.104-0.543c-0.341-0.21-0.639-0.456-0.891-0.749c-0.252-0.291-0.448-0.628-0.591-1.007
		c-0.145-0.386-0.215-0.826-0.215-1.335c0-0.711,0.146-1.328,0.437-1.843c0.292-0.505,0.695-0.927,1.213-1.258
		c0.513-0.331,1.122-0.569,1.823-0.723c0.702-0.151,1.463-0.227,2.279-0.227c0.94,0,1.742,0.075,2.412,0.222
		c0.664,0.146,1.229,0.366,1.688,0.66c0.458,0.299,0.824,0.656,1.103,1.091c0.275,0.434,0.495,0.938,0.66,1.512l-2.022,0.355
		c-0.1-0.365-0.245-0.69-0.434-0.979c-0.191-0.286-0.439-0.524-0.749-0.719c-0.31-0.195-0.685-0.339-1.124-0.438
		c-0.44-0.104-0.959-0.157-1.554-0.157c-0.704,0-1.291,0.064-1.769,0.189c-0.478,0.127-0.862,0.295-1.151,0.509
		c-0.29,0.218-0.497,0.471-0.622,0.763c-0.127,0.291-0.188,0.602-0.188,0.941c0,0.448,0.111,0.821,0.337,1.112
		c0.229,0.29,0.532,0.53,0.922,0.727c0.386,0.189,0.835,0.35,1.345,0.48c0.508,0.127,1.047,0.259,1.622,0.39
		c0.465,0.105,0.93,0.214,1.393,0.325c0.464,0.113,0.904,0.246,1.328,0.397c0.421,0.157,0.818,0.335,1.189,0.545
		c0.368,0.208,0.688,0.463,0.959,0.76c0.274,0.303,0.488,0.658,0.643,1.065C213.524,405.417,213.602,405.897,213.602,406.448z"/>
	<path d="M223.455,397.157v13.473h-2.045v-13.473h-5.202v-1.675h12.453v1.675H223.455z"/>
	<path d="M238.121,410.85c-0.832,0-1.619-0.111-2.366-0.335c-0.739-0.221-1.393-0.567-1.958-1.036
		c-0.565-0.472-1.005-1.067-1.34-1.79c-0.331-0.713-0.493-1.569-0.493-2.561v-9.646h2.055v9.472c0,0.771,0.097,1.422,0.303,1.953
		c0.21,0.536,0.489,0.967,0.852,1.304c0.368,0.337,0.808,0.586,1.3,0.741c0.5,0.155,1.042,0.228,1.639,0.228
		c0.59,0,1.143-0.078,1.667-0.236c0.521-0.157,0.981-0.407,1.377-0.755c0.392-0.343,0.703-0.793,0.929-1.345
		c0.23-0.557,0.339-1.235,0.339-2.026v-9.335h2.044v9.452c0,1.007-0.166,1.886-0.501,2.628c-0.335,0.743-0.787,1.355-1.356,1.848
		c-0.578,0.486-1.248,0.848-2.019,1.084C239.821,410.73,239.001,410.85,238.121,410.85z"/>
	<path d="M262.121,402.903c0,1.262-0.186,2.372-0.573,3.333c-0.384,0.963-0.896,1.771-1.559,2.421
		c-0.658,0.65-1.434,1.141-2.338,1.472c-0.896,0.337-1.869,0.501-2.911,0.501h-5.665v-15.147h5.011c1.167,0,2.245,0.146,3.234,0.436
		c0.981,0.291,1.833,0.737,2.536,1.343c0.719,0.605,1.271,1.375,1.667,2.308C261.924,400.499,262.121,401.611,262.121,402.903z
		 M260.05,402.903c0-1.027-0.142-1.903-0.44-2.631c-0.29-0.727-0.702-1.324-1.231-1.792c-0.536-0.465-1.162-0.808-1.901-1.026
		c-0.739-0.216-1.555-0.331-2.435-0.331h-2.915v11.863h3.375c0.8,0,1.538-0.132,2.209-0.386c0.682-0.259,1.268-0.64,1.765-1.148
		c0.496-0.513,0.884-1.145,1.154-1.906C259.917,404.785,260.05,403.904,260.05,402.903z"/>
	<path d="M266.309,410.63v-15.147h2.043v15.147H266.309z"/>
	<path d="M287.567,402.986c0,1.187-0.17,2.259-0.509,3.226c-0.34,0.97-0.836,1.795-1.479,2.483c-0.649,0.688-1.433,1.222-2.37,1.593
		c-0.933,0.374-1.982,0.562-3.165,0.562c-1.248,0-2.342-0.198-3.287-0.586c-0.937-0.392-1.72-0.938-2.342-1.633
		c-0.626-0.702-1.094-1.534-1.405-2.495c-0.318-0.959-0.48-2.009-0.48-3.149c0-1.182,0.174-2.249,0.497-3.2
		c0.331-0.957,0.815-1.767,1.453-2.437c0.639-0.675,1.422-1.188,2.366-1.551c0.929-0.363,2.003-0.543,3.21-0.543
		c1.212,0,2.285,0.184,3.219,0.553c0.928,0.364,1.72,0.879,2.35,1.555c0.634,0.671,1.118,1.486,1.453,2.441
		C287.401,400.762,287.567,401.821,287.567,402.986z M285.476,402.986c0-0.913-0.117-1.736-0.355-2.483
		c-0.234-0.747-0.581-1.383-1.029-1.914c-0.456-0.531-1.018-0.94-1.692-1.226c-0.678-0.286-1.453-0.428-2.342-0.428
		c-0.896,0-1.688,0.142-2.37,0.428c-0.678,0.285-1.247,0.694-1.708,1.226c-0.452,0.531-0.787,1.167-1.018,1.914
		c-0.226,0.747-0.343,1.57-0.343,2.483c0,0.91,0.121,1.744,0.359,2.503c0.23,0.755,0.573,1.409,1.025,1.956
		c0.456,0.548,1.025,0.976,1.704,1.278c0.666,0.307,1.453,0.456,2.338,0.456c0.937,0,1.756-0.151,2.446-0.46
		c0.683-0.311,1.24-0.739,1.68-1.284c0.44-0.549,0.771-1.207,0.985-1.966C285.366,404.712,285.476,403.883,285.476,402.986z"/>
	<path d="M303.395,406.448c0,0.639-0.121,1.229-0.367,1.763c-0.246,0.541-0.626,1.006-1.146,1.396
		c-0.517,0.392-1.163,0.696-1.95,0.912c-0.779,0.22-1.72,0.331-2.794,0.331c-1.882,0-3.348-0.333-4.405-0.989
		c-1.054-0.664-1.725-1.613-2.007-2.86l1.982-0.4c0.101,0.398,0.259,0.755,0.469,1.078c0.201,0.319,0.488,0.598,0.836,0.83
		c0.359,0.236,0.799,0.416,1.324,0.547c0.521,0.125,1.146,0.189,1.873,0.189c0.614,0,1.171-0.052,1.684-0.153
		c0.505-0.104,0.945-0.267,1.309-0.482c0.367-0.214,0.654-0.49,0.852-0.827c0.21-0.346,0.312-0.747,0.312-1.224
		c0-0.493-0.109-0.896-0.34-1.205c-0.222-0.31-0.541-0.563-0.948-0.764c-0.416-0.199-0.896-0.367-1.462-0.503
		c-0.565-0.139-1.195-0.288-1.886-0.441c-0.416-0.093-0.844-0.196-1.271-0.307c-0.424-0.111-0.84-0.243-1.228-0.398
		c-0.392-0.151-0.755-0.335-1.103-0.543c-0.343-0.21-0.642-0.456-0.893-0.749c-0.242-0.291-0.448-0.628-0.589-1.007
		c-0.142-0.386-0.214-0.826-0.214-1.335c0-0.711,0.145-1.328,0.432-1.843c0.287-0.505,0.698-0.927,1.211-1.258
		c0.518-0.331,1.123-0.569,1.829-0.723c0.703-0.151,1.462-0.227,2.281-0.227c0.938,0,1.736,0.075,2.407,0.222
		c0.662,0.146,1.228,0.366,1.691,0.66c0.456,0.299,0.824,0.656,1.099,1.091c0.278,0.434,0.5,0.938,0.662,1.512l-2.023,0.355
		c-0.101-0.365-0.246-0.69-0.432-0.979c-0.189-0.286-0.444-0.524-0.751-0.719c-0.307-0.195-0.679-0.339-1.123-0.438
		c-0.443-0.104-0.957-0.157-1.559-0.157c-0.702,0-1.283,0.064-1.769,0.189c-0.472,0.127-0.855,0.295-1.146,0.509
		c-0.286,0.218-0.492,0.471-0.622,0.763c-0.133,0.291-0.189,0.602-0.189,0.941c0,0.448,0.109,0.821,0.344,1.112
		c0.222,0.29,0.524,0.53,0.912,0.727c0.384,0.189,0.836,0.35,1.345,0.48c0.513,0.127,1.05,0.259,1.627,0.39
		c0.465,0.105,0.929,0.214,1.394,0.325c0.46,0.113,0.904,0.246,1.328,0.397c0.42,0.157,0.812,0.335,1.191,0.545
		c0.367,0.208,0.682,0.463,0.957,0.76c0.274,0.303,0.484,0.658,0.638,1.065C303.326,405.417,303.395,405.897,303.395,406.448z"/>
	<path d="M326.41,406.448c0,0.639-0.129,1.229-0.371,1.763c-0.251,0.541-0.635,1.006-1.151,1.396
		c-0.513,0.392-1.163,0.696-1.95,0.912c-0.783,0.22-1.712,0.331-2.79,0.331c-1.89,0-3.352-0.333-4.405-0.989
		c-1.058-0.664-1.729-1.613-2.011-2.86l1.991-0.4c0.101,0.398,0.25,0.755,0.46,1.078c0.21,0.319,0.488,0.598,0.844,0.83
		c0.352,0.236,0.791,0.416,1.316,0.547c0.521,0.125,1.15,0.189,1.882,0.189c0.609,0,1.162-0.052,1.676-0.153
		c0.513-0.104,0.944-0.267,1.312-0.482c0.363-0.214,0.65-0.49,0.856-0.827c0.206-0.346,0.307-0.747,0.307-1.224
		c0-0.493-0.109-0.896-0.343-1.205c-0.223-0.31-0.542-0.563-0.945-0.764c-0.408-0.199-0.9-0.367-1.47-0.503
		c-0.565-0.139-1.188-0.288-1.878-0.441c-0.424-0.093-0.848-0.196-1.275-0.307c-0.424-0.111-0.832-0.243-1.224-0.398
		c-0.388-0.151-0.759-0.335-1.103-0.543c-0.343-0.21-0.638-0.456-0.9-0.749c-0.242-0.291-0.439-0.628-0.589-1.007
		c-0.138-0.386-0.215-0.826-0.215-1.335c0-0.711,0.15-1.328,0.44-1.843c0.291-0.505,0.694-0.927,1.207-1.258
		c0.518-0.331,1.131-0.569,1.829-0.723c0.703-0.151,1.462-0.227,2.281-0.227c0.938,0,1.741,0.075,2.407,0.222
		c0.67,0.146,1.231,0.366,1.691,0.66c0.456,0.299,0.824,0.656,1.099,1.091c0.274,0.434,0.492,0.938,0.666,1.512l-2.027,0.355
		c-0.097-0.365-0.238-0.69-0.436-0.979c-0.189-0.286-0.44-0.524-0.747-0.719c-0.303-0.195-0.683-0.339-1.122-0.438
		c-0.44-0.104-0.957-0.157-1.551-0.157c-0.703,0-1.301,0.064-1.769,0.189c-0.48,0.127-0.856,0.295-1.151,0.509
		c-0.286,0.218-0.5,0.471-0.625,0.763c-0.117,0.291-0.19,0.602-0.19,0.941c0,0.448,0.113,0.821,0.34,1.112
		c0.226,0.29,0.536,0.53,0.916,0.727c0.392,0.189,0.84,0.35,1.345,0.48c0.517,0.127,1.062,0.259,1.631,0.39
		c0.461,0.105,0.925,0.214,1.39,0.325c0.464,0.113,0.904,0.246,1.324,0.397c0.428,0.157,0.819,0.335,1.187,0.545
		c0.376,0.208,0.695,0.463,0.97,0.76c0.271,0.303,0.484,0.658,0.638,1.065C326.325,405.417,326.41,405.897,326.41,406.448z"/>
	<path d="M336.379,410.85c-0.836,0-1.623-0.111-2.366-0.335c-0.751-0.221-1.396-0.567-1.958-1.036
		c-0.569-0.472-1.014-1.067-1.349-1.79c-0.323-0.713-0.488-1.569-0.488-2.561v-9.646h2.06v9.472c0,0.771,0.097,1.422,0.303,1.953
		c0.197,0.536,0.488,0.967,0.848,1.304c0.371,0.337,0.804,0.586,1.3,0.741c0.497,0.155,1.046,0.228,1.64,0.228
		c0.59,0,1.143-0.078,1.668-0.236c0.521-0.157,0.98-0.407,1.376-0.755c0.388-0.343,0.703-0.793,0.929-1.345
		c0.227-0.557,0.34-1.235,0.34-2.026v-9.335h2.039v9.452c0,1.007-0.162,1.886-0.497,2.628c-0.335,0.743-0.787,1.355-1.353,1.848
		c-0.586,0.486-1.256,0.848-2.022,1.084C338.071,410.73,337.251,410.85,336.379,410.85z"/>
	<path d="M359.047,400.043c0,0.66-0.109,1.273-0.327,1.843c-0.218,0.567-0.549,1.066-0.981,1.482
		c-0.432,0.415-0.973,0.751-1.627,1.001c-0.649,0.238-1.413,0.359-2.277,0.359h-4.453v5.901h-2.052v-15.147h6.372
		c0.904,0,1.68,0.11,2.346,0.331c0.666,0.216,1.224,0.522,1.672,0.92c0.439,0.394,0.775,0.879,0.993,1.446
		C358.938,398.74,359.047,399.364,359.047,400.043z M356.979,400.061c0-0.959-0.29-1.688-0.88-2.188
		c-0.586-0.494-1.47-0.749-2.645-0.749h-4.074v5.984h4.158c1.184,0,2.056-0.267,2.608-0.781
		C356.705,401.799,356.979,401.048,356.979,400.061z"/>
	<path d="M363.117,410.63v-15.147h11.495v1.675h-9.44v4.862h8.799v1.659h-8.799v5.275h9.877v1.676H363.117z"/>
	<path d="M389.612,410.63l-3.933-6.289h-4.72v6.289h-2.056v-15.147h7.135c0.856,0,1.619,0.101,2.277,0.301
		c0.67,0.193,1.228,0.476,1.672,0.852c0.456,0.369,0.799,0.823,1.037,1.362c0.23,0.539,0.352,1.146,0.352,1.821
		c0,0.477-0.072,0.949-0.21,1.415c-0.133,0.467-0.359,0.895-0.662,1.28c-0.299,0.39-0.683,0.719-1.146,1.001
		c-0.465,0.275-1.03,0.475-1.676,0.59l4.3,6.525H389.612z M389.31,399.839c0-0.458-0.076-0.856-0.229-1.195
		c-0.162-0.337-0.388-0.618-0.691-0.846c-0.303-0.225-0.662-0.392-1.094-0.505c-0.436-0.113-0.921-0.17-1.466-0.17h-4.869v5.597
		h4.954c0.59,0,1.099-0.079,1.53-0.22c0.428-0.147,0.779-0.352,1.054-0.608c0.283-0.26,0.488-0.559,0.618-0.916
		C389.249,400.628,389.31,400.244,389.31,399.839z"/>
	<path d="M396.134,410.63v-15.147h2.055v15.147H396.134z"/>
	<path d="M417.396,402.986c0,1.187-0.174,2.259-0.513,3.226c-0.335,0.97-0.828,1.795-1.479,2.483
		c-0.649,0.688-1.433,1.222-2.366,1.593c-0.933,0.374-1.986,0.562-3.165,0.562c-1.252,0-2.35-0.198-3.287-0.586
		c-0.929-0.392-1.716-0.938-2.346-1.633c-0.622-0.702-1.09-1.534-1.401-2.495c-0.318-0.959-0.477-2.009-0.477-3.149
		c0-1.182,0.17-2.249,0.497-3.2c0.335-0.957,0.812-1.767,1.449-2.437c0.639-0.675,1.426-1.188,2.362-1.551s2.011-0.543,3.218-0.543
		c1.208,0,2.277,0.184,3.215,0.553c0.937,0.364,1.72,0.879,2.35,1.555c0.638,0.671,1.114,1.486,1.449,2.441
		C417.23,400.762,417.396,401.821,417.396,402.986z M415.301,402.986c0-0.913-0.117-1.736-0.352-2.483
		c-0.23-0.747-0.573-1.383-1.029-1.914c-0.461-0.531-1.018-0.94-1.696-1.226c-0.67-0.286-1.449-0.428-2.334-0.428
		c-0.9,0-1.691,0.142-2.374,0.428c-0.687,0.285-1.251,0.694-1.708,1.226c-0.452,0.531-0.791,1.167-1.021,1.914
		c-0.222,0.747-0.335,1.57-0.335,2.483c0,0.91,0.117,1.744,0.352,2.503c0.23,0.755,0.573,1.409,1.033,1.956
		c0.448,0.548,1.021,0.976,1.692,1.278c0.682,0.307,1.461,0.456,2.346,0.456c0.94,0,1.752-0.151,2.446-0.46
		c0.683-0.311,1.244-0.739,1.685-1.284c0.439-0.549,0.763-1.207,0.977-1.966C415.191,404.712,415.301,403.883,415.301,402.986z"/>
	<path d="M432.069,410.63l-3.94-6.289h-4.721v6.289h-2.055v-15.147h7.126c0.868,0,1.628,0.101,2.29,0.301
		c0.658,0.193,1.219,0.476,1.676,0.852c0.447,0.369,0.799,0.823,1.029,1.362c0.238,0.539,0.352,1.146,0.352,1.821
		c0,0.477-0.069,0.949-0.206,1.415c-0.142,0.467-0.363,0.895-0.662,1.28c-0.303,0.39-0.69,0.719-1.147,1.001
		c-0.468,0.275-1.025,0.475-1.684,0.59l4.305,6.525H432.069z M431.763,399.839c0-0.458-0.077-0.856-0.234-1.195
		c-0.157-0.337-0.388-0.618-0.687-0.846c-0.299-0.225-0.67-0.392-1.099-0.505c-0.432-0.113-0.92-0.17-1.461-0.17h-4.874v5.597h4.963
		c0.585,0,1.09-0.079,1.521-0.22c0.437-0.147,0.784-0.352,1.062-0.608c0.271-0.26,0.473-0.559,0.609-0.916
		C431.693,400.628,431.763,400.244,431.763,399.839z"/>
	<path d="M438.36,410.63v-15.147h11.495v1.675h-9.44v4.862h8.795v1.659h-8.795v5.275h9.885v1.676H438.36z"/>
	<path d="M466.015,406.448c0,0.639-0.121,1.229-0.367,1.763c-0.242,0.541-0.622,1.006-1.143,1.396
		c-0.518,0.392-1.171,0.696-1.955,0.912c-0.779,0.22-1.712,0.331-2.79,0.331c-1.881,0-3.355-0.333-4.409-0.989
		c-1.054-0.664-1.728-1.613-2.007-2.86l1.991-0.4c0.097,0.398,0.25,0.755,0.46,1.078c0.206,0.319,0.488,0.598,0.844,0.83
		c0.355,0.236,0.796,0.416,1.316,0.547c0.521,0.125,1.151,0.189,1.882,0.189c0.605,0,1.171-0.052,1.676-0.153
		c0.509-0.104,0.948-0.267,1.316-0.482c0.359-0.214,0.653-0.49,0.844-0.827c0.21-0.346,0.314-0.747,0.314-1.224
		c0-0.493-0.112-0.896-0.339-1.205c-0.222-0.31-0.545-0.563-0.953-0.764c-0.407-0.199-0.893-0.367-1.457-0.503
		c-0.569-0.139-1.199-0.288-1.886-0.441c-0.42-0.093-0.844-0.196-1.276-0.307c-0.424-0.111-0.832-0.243-1.228-0.398
		c-0.388-0.151-0.755-0.335-1.098-0.543c-0.344-0.21-0.646-0.456-0.889-0.749c-0.254-0.291-0.456-0.628-0.594-1.007
		c-0.146-0.386-0.214-0.826-0.214-1.335c0-0.711,0.142-1.328,0.432-1.843c0.287-0.505,0.695-0.927,1.216-1.258
		c0.509-0.331,1.122-0.569,1.821-0.723c0.706-0.151,1.457-0.227,2.281-0.227c0.937,0,1.736,0.075,2.406,0.222
		c0.666,0.146,1.231,0.366,1.691,0.66c0.461,0.299,0.828,0.656,1.099,1.091c0.282,0.434,0.497,0.938,0.666,1.512l-2.022,0.355
		c-0.105-0.365-0.25-0.69-0.437-0.979c-0.189-0.286-0.439-0.524-0.747-0.719c-0.311-0.195-0.678-0.339-1.122-0.438
		c-0.44-0.104-0.965-0.157-1.559-0.157c-0.702,0-1.288,0.064-1.765,0.189c-0.477,0.127-0.859,0.295-1.154,0.509
		c-0.291,0.218-0.497,0.471-0.622,0.763c-0.125,0.291-0.189,0.602-0.189,0.941c0,0.448,0.108,0.821,0.339,1.112
		c0.226,0.29,0.537,0.53,0.921,0.727c0.383,0.189,0.831,0.35,1.344,0.48c0.509,0.127,1.055,0.259,1.628,0.39
		c0.46,0.105,0.925,0.214,1.393,0.325c0.456,0.113,0.9,0.246,1.324,0.397c0.42,0.157,0.824,0.335,1.191,0.545
		c0.367,0.208,0.683,0.463,0.957,0.76c0.274,0.303,0.484,0.658,0.638,1.065C465.946,405.417,466.015,405.897,466.015,406.448z"/>
</g>
<g>
	<path fill="#30417C" d="M15.428,365.807c-0.614,0-1.153-0.23-1.615-0.692s-0.691-0.999-0.691-1.611v-55.658
		c0-0.613,0.229-1.15,0.691-1.619c0.462-0.454,1.001-0.684,1.615-0.684h31.057c2.66,0,5.082,0.339,7.264,1.039
		c2.175,0.685,4.135,1.698,5.877,3.03c1.792,1.441,3.166,3.039,4.115,4.805c0.942,1.769,1.42,3.808,1.42,6.113
		c0,2.82-0.614,5.3-1.845,7.456c-1.229,2.148-3.15,3.898-5.764,5.225c2.664,1.08,4.689,2.411,6.074,4
		c2.559,2.97,3.842,6.791,3.842,11.45c0,5.181-1.971,9.378-5.919,12.608c-3.74,3.028-8.609,4.538-14.604,4.538H15.428z
		 M33.643,319.296v9.61h4.693c1.947,0,3.52-0.491,4.722-1.458c1.208-0.979,1.81-2.049,1.81-3.232c0-1.324-0.576-2.485-1.729-3.456
		c-1.153-0.976-2.729-1.464-4.729-1.464H33.643z M33.643,340.589v11.455h5.304c2.155,0,3.934-0.511,5.345-1.536
		c1.408-1.025,2.113-2.385,2.113-4.076c0-1.791-0.666-3.218-1.999-4.264c-1.333-1.05-3.075-1.579-5.228-1.579H33.643z"/>
	<path fill="#30417C" d="M80.535,365.807c-0.564,0-1.039-0.23-1.421-0.692c-0.386-0.462-0.579-0.999-0.579-1.611v-55.658
		c0-0.613,0.193-1.15,0.579-1.619c0.382-0.454,0.857-0.684,1.421-0.684h14.296c0.564,0,1.039,0.229,1.423,0.684
		c0.385,0.469,0.577,1.006,0.577,1.619v55.658c0,0.612-0.192,1.149-0.577,1.611s-0.859,0.692-1.423,0.692H80.535z"/>
	<path fill="#30417C" d="M129.192,347.97h29.058c0.616,0,1.165,0.221,1.648,0.652c0.491,0.44,0.733,0.987,0.733,1.661v13.22
		c0,0.612-0.23,1.149-0.692,1.611c-0.459,0.462-0.999,0.692-1.611,0.692h-48.044c-0.668,0-1.234-0.23-1.693-0.692
		c-0.464-0.462-0.694-0.999-0.694-1.611v-55.658c0-0.613,0.22-1.15,0.654-1.619c0.434-0.454,0.989-0.684,1.653-0.684h16.681
		c0.614,0,1.163,0.229,1.653,0.684c0.489,0.469,0.73,1.006,0.73,1.619L129.192,347.97z"/>
	<path fill="#30417C" d="M207.599,305.542c9.171,0,16.628,2.792,22.374,8.38c5.681,5.531,8.528,12.785,8.528,21.749
		c0,8.764-2.867,15.987-8.608,21.683c-5.69,5.631-13.018,8.453-21.983,8.453h-33.822c-0.67,0-1.234-0.23-1.695-0.692
		c-0.461-0.462-0.693-0.999-0.693-1.611v-55.658c0-0.613,0.232-1.15,0.693-1.619c0.46-0.454,1.025-0.684,1.695-0.684H207.599z
		 M214.904,326.832c-1.796-1.998-4.435-3.002-7.92-3.002h-13.531v23.68h12.917c3.689,0,6.481-0.981,8.377-2.96
		c1.895-1.975,2.848-4.907,2.848-8.8C217.595,331.801,216.695,328.829,214.904,326.832z"/>
	<path fill="#30417C" d="M291.379,307.771c0-0.614,0.238-1.161,0.698-1.617c0.46-0.454,1.021-0.692,1.691-0.692h15.832
		c0.614,0,1.155,0.238,1.611,0.692c0.465,0.456,0.698,1.003,0.698,1.617v39.049c0,7.43-2.847,12.687-8.531,15.755
		c-5.229,2.764-12.812,4.155-22.753,4.155c-10.252,0-17.867-1.392-22.837-4.155c-5.479-3.068-8.217-8.582-8.217-16.526v-38.277
		c0-0.614,0.226-1.161,0.687-1.617c0.464-0.454,1.021-0.692,1.691-0.692h15.759c0.667,0,1.232,0.238,1.692,0.692
		c0.456,0.456,0.687,1.003,0.687,1.617v31.668c0,3.537,0.836,6.049,2.503,7.53c1.664,1.488,4.446,2.232,8.342,2.232
		c3.687,0,6.355-0.777,7.991-2.348c1.644-1.555,2.455-4.11,2.455-7.64V307.771z"/>
	<path fill="#30417C" d="M361.72,330.101c1.434,1.969,2.899,3.985,4.381,6.035v-28.291c0-0.613,0.234-1.15,0.694-1.619
		c0.465-0.454,1.022-0.684,1.692-0.684h14.984c0.67,0,1.239,0.229,1.691,0.684c0.469,0.469,0.694,1.006,0.694,1.619v55.658
		c0,0.612-0.226,1.149-0.694,1.611c-0.452,0.462-1.021,0.692-1.691,0.692h-17.218c-0.254,0-0.589-0.093-0.997-0.271
		c-0.403-0.184-0.723-0.397-0.921-0.656l-21.682-29.209v27.832c0,0.612-0.227,1.149-0.691,1.611
		c-0.46,0.462-1.021,0.692-1.688,0.692h-14.992c-0.613,0-1.146-0.23-1.615-0.692c-0.46-0.462-0.686-0.999-0.686-1.611v-55.658
		c0-0.613,0.226-1.15,0.686-1.619c0.469-0.454,1.002-0.684,1.615-0.684h17.067c0.304,0,0.679,0.099,1.115,0.303
		c0.436,0.214,0.706,0.439,0.808,0.694c2.253,3.072,4.445,6.059,6.569,8.953c2.128,2.897,4.292,5.803,6.496,8.724
		C358.825,326.17,360.286,328.127,361.72,330.101z"/>
	<path fill="#30417C" d="M423.062,347.279c3.278,2.769,7.812,4.155,13.603,4.155c4.615,0,8.124-0.465,10.53-1.387v-3.849h-8.063
		c-0.674,0-1.239-0.229-1.695-0.688c-0.46-0.466-0.69-1.027-0.69-1.688v-10.226c0-0.67,0.23-1.218,0.69-1.655
		c0.456-0.433,1.021-0.654,1.695-0.654h24.595c0.67,0,1.231,0.222,1.691,0.654c0.464,0.438,0.694,0.985,0.694,1.655v26.98
		c0,0.46-0.174,0.914-0.501,1.342c-0.335,0.438-0.727,0.729-1.194,0.883c-3.739,1.177-8.012,2.13-12.8,2.849
		c-4.793,0.719-9.978,1.078-15.565,1.078c-12.662,0-22.341-2.451-29.06-7.347c-6.707-4.894-10.07-12.438-10.07-22.632
		c0-9.995,3.469-17.911,10.377-23.754c6.925-5.739,15.97-8.61,27.142-8.61c5.431,0,10.324,0.348,14.682,1.042
		c4.356,0.687,7.865,1.445,10.526,2.269c0.415,0.098,0.779,0.342,1.118,0.724c0.327,0.381,0.521,0.785,0.573,1.19l1.312,10.688
		c0.101,0.872-0.157,1.572-0.771,2.109c-0.618,0.537-1.36,0.685-2.232,0.422c-2.767-0.815-6.098-1.611-9.989-2.376
		c-1.898-0.359-3.804-0.645-5.73-0.848c-1.918-0.208-3.855-0.312-5.806-0.312c-6.041,0-10.91,1.536-14.597,4.617
		c-3.537,3.073-5.31,7.125-5.31,12.142C418.216,340.772,419.835,344.508,423.062,347.279z"/>
</g>
<path fill="#6A86B2" d="M361.655,87.644c-38.185-12.346-79.244-18.605-122.041-18.605c-42.794,0-83.854,6.259-122.038,18.605
	l-2.863,0.924v3.009v115.686v2.772v42.463v3.008l2.863,0.927c38.181,12.346,79.24,18.604,122.038,18.604
	c42.796,0,83.856-6.258,122.041-18.604l2.863-0.927v-3.008v-42.485v-2.746V91.577v-3.009L361.655,87.644z M360.384,207.267v2.746
	v42.485c-36.368,11.758-77.359,18.404-120.769,18.404c-43.407,0-84.401-6.646-120.766-18.404v-42.463v-2.772V91.577
	c36.365-11.757,77.359-18.404,120.766-18.404c43.41,0,84.401,6.647,120.769,18.404V207.267z"/>
<path fill="#6B86B2" d="M349.025,208.523c-2.035-0.192-4.082-0.384-6.138-0.577c-8.217-0.771-16.574-1.557-25.033-2.35
	c-4.254-0.412-8.546-0.673-12.862-0.902c-0.348,11.833-5.05,21.496-14.187,28.98c-9,7.296-20.73,10.931-35.169,10.931h-75.901
	c-1.487,0-2.774-0.552-3.89-1.664c-1.115-1.116-1.673-2.41-1.673-3.89v-34.349c-4.292,0.227-8.56,0.487-12.794,0.896
	c-8.461,0.793-16.814,1.579-25.034,2.352c-5.938,0.436-11.753,1.3-17.495,2.085v42.463c36.365,11.758,77.359,18.404,120.766,18.404
	c43.41,0,84.401-6.646,120.769-18.404v-42.485c-1.761-0.23-3.521-0.46-5.298-0.69C353.075,209.056,351.057,208.79,349.025,208.523z"
	/>
<path fill="#6B86B2" d="M236.377,211.464c5.188,0,9.464-1.231,12.876-3.703c1.935-1.405,3.295-3.083,4.123-5.014
	c-4.577-0.078-9.147-0.155-13.729-0.233c-5.353,0.091-10.691,0.183-16.036,0.275v8.675H236.377z"/>
<path fill="#4E5685" d="M254.231,199.573c0.062-0.526,0.101-1.064,0.101-1.619c0-4.322-1.606-7.754-4.801-10.282
	c-3.205-2.523-7.405-3.793-12.593-3.793h-13.327v15.72c5.325-0.112,10.643-0.223,15.976-0.336
	C244.475,199.366,249.35,199.47,254.231,199.573z"/>
<path fill="#4E5685" d="M118.849,91.577v115.686c1.649-0.228,3.302-0.46,4.964-0.69c2.014-0.274,4.038-0.549,6.072-0.826
	c2.042-0.2,4.092-0.402,6.154-0.604c8.243-0.81,16.618-1.633,25.102-2.465c4.307-0.434,8.657-0.714,13.032-0.964v-96.696
	c0-1.473,0.558-2.772,1.673-3.888c1.116-1.101,2.403-1.658,3.89-1.658h74.783c6.432,0,12.258,0.822,17.507,2.51
	c5.241,1.643,9.962,4.082,14.165,7.297c4.304,3.463,7.603,7.312,9.896,11.566c2.281,4.261,3.411,9.171,3.411,14.727
	c0,6.784-1.474,12.764-4.433,17.955c-2.96,5.177-7.591,9.39-13.882,12.582c6.412,2.586,11.293,5.811,14.624,9.62
	c5.867,6.811,8.909,15.495,9.194,25.985c4.393,0.25,8.76,0.532,13.09,0.969c8.479,0.832,16.858,1.651,25.099,2.461
	c2.06,0.202,4.115,0.404,6.158,0.605c2.035,0.274,4.058,0.553,6.072,0.826c1.664,0.232,3.315,0.462,4.963,0.692V91.577
	c-36.368-11.757-77.359-18.404-120.769-18.404C196.208,73.173,155.213,79.82,118.849,91.577z"/>
<path fill="#4E5685" d="M246.293,152.227c2.899-2.355,4.354-4.927,4.354-7.778c0-3.2-1.394-5.996-4.184-8.336
	c-2.77-2.34-6.553-3.517-11.386-3.517h-11.465v23.147h11.296C239.603,155.744,243.395,154.558,246.293,152.227z"/>
<path fill="#FFFFFF" d="M253.376,202.748c0.428-0.991,0.721-2.046,0.855-3.175c-4.882-0.103-9.757-0.207-14.645-0.311
	c-5.333,0.113-10.651,0.224-15.976,0.336v3.191c5.345-0.092,10.683-0.184,16.036-0.275
	C244.229,202.593,248.799,202.67,253.376,202.748z"/>
<path fill="#FFFFFF" d="M161.378,205.598c4.234-0.41,8.502-0.669,12.794-0.896v-2.987c-4.375,0.25-8.725,0.53-13.032,0.964
	c-8.483,0.832-16.858,1.656-25.102,2.465c-2.062,0.202-4.112,0.404-6.154,0.604c-2.034,0.276-4.058,0.551-6.072,0.826
	c-1.663,0.23-3.315,0.462-4.964,0.69v2.772c5.742-0.785,11.558-1.649,17.495-2.085C144.564,207.176,152.917,206.391,161.378,205.598
	z"/>
<path fill="#FFFFFF" d="M349.349,205.749c-2.043-0.202-4.099-0.404-6.158-0.605c-8.24-0.81-16.619-1.629-25.099-2.461
	c-4.33-0.438-8.697-0.719-13.09-0.969c0.014,0.537,0.057,1.055,0.057,1.601c0,0.47-0.055,0.916-0.066,1.379
	c4.316,0.229,8.608,0.49,12.862,0.902c8.459,0.793,16.816,1.579,25.033,2.35c2.056,0.193,4.103,0.385,6.138,0.577
	c2.031,0.267,4.05,0.533,6.061,0.799c1.776,0.23,3.537,0.46,5.298,0.69v-2.746c-1.647-0.23-3.299-0.46-4.963-0.692
	C353.406,206.302,351.384,206.023,349.349,205.749z"/>
<path fill="#FFFFFF" d="M279.116,203.276c-4.361-0.256-8.737-0.2-13.123-0.313c-4.195-0.071-8.41-0.143-12.617-0.215
	c-0.828,1.93-2.188,3.609-4.123,5.014c-3.412,2.471-7.688,3.703-12.876,3.703h-12.766v-8.675c-3.46,0.06-6.932,0.119-10.383,0.177
	c-4.389,0.113-8.786,0.057-13.139,0.311c-4.354,0.242-8.693,0.482-13.016,0.723c-4.317,0.28-8.621,0.475-12.902,0.701v34.349
	c0,1.48,0.558,2.774,1.673,3.89c1.116,1.112,2.403,1.664,3.89,1.664h75.901c14.438,0,26.169-3.634,35.169-10.931
	c9.137-7.485,13.839-17.148,14.187-28.98c-4.264-0.225-8.553-0.42-12.851-0.697C287.813,203.758,283.473,203.516,279.116,203.276z"
	/>
<path fill="#FFFFFF" d="M200.019,200.189c4.376-0.274,8.754-0.234,13.149-0.372c3.471-0.071,6.963-0.146,10.443-0.219v-15.72h13.327
	c5.188,0,9.388,1.27,12.593,3.793c3.194,2.528,4.801,5.96,4.801,10.282c0,0.555-0.038,1.093-0.101,1.619
	c3.949,0.085,7.908,0.168,11.847,0.252c4.397,0.133,8.79,0.093,13.159,0.368c4.373,0.26,8.729,0.521,13.07,0.777
	c4.245,0.292,8.481,0.503,12.694,0.743c-0.285-10.49-3.327-19.174-9.194-25.985c-3.331-3.81-8.212-7.034-14.624-9.62
	c6.291-3.191,10.922-7.405,13.882-12.582c2.959-5.19,4.433-11.17,4.433-17.955c0-5.556-1.13-10.466-3.411-14.727
	c-2.294-4.254-5.593-8.103-9.896-11.566c-4.203-3.215-8.924-5.655-14.165-7.297c-5.249-1.688-11.075-2.51-17.507-2.51h-74.783
	c-1.487,0-2.774,0.557-3.89,1.658c-1.115,1.116-1.673,2.416-1.673,3.888v96.696c4.238-0.241,8.499-0.454,12.77-0.746
	C191.282,200.708,195.647,200.452,200.019,200.189z M223.611,132.597h11.465c4.833,0,8.617,1.177,11.386,3.517
	c2.79,2.34,4.184,5.136,4.184,8.336c0,2.851-1.454,5.423-4.354,7.778c-2.898,2.331-6.69,3.517-11.386,3.517h-11.296V132.597z"/>
<path fill="#FFFFFF" d="M279.237,200.193c-4.369-0.275-8.762-0.234-13.159-0.368c-3.938-0.084-7.897-0.167-11.847-0.252
	c-0.135,1.128-0.428,2.184-0.855,3.175c4.207,0.072,8.422,0.144,12.617,0.215c4.386,0.113,8.762,0.057,13.123,0.313
	c4.356,0.24,8.697,0.482,13.025,0.721c4.298,0.277,8.587,0.472,12.851,0.697c0.012-0.463,0.066-0.909,0.066-1.379
	c0-0.546-0.043-1.064-0.057-1.601c-4.213-0.24-8.449-0.451-12.694-0.743C287.967,200.714,283.61,200.454,279.237,200.193z"/>
<path fill="#FFFFFF" d="M187.074,204c4.322-0.24,8.662-0.48,13.016-0.723c4.353-0.254,8.75-0.198,13.139-0.311
	c3.451-0.058,6.922-0.118,10.383-0.177v-3.191c-3.48,0.073-6.972,0.147-10.443,0.219c-4.395,0.138-8.773,0.097-13.149,0.372
	c-4.372,0.263-8.737,0.519-13.077,0.779c-4.271,0.292-8.532,0.505-12.77,0.746v2.987C178.454,204.475,182.757,204.28,187.074,204z"
	/>
<line fill="none" stroke="#4E5685" stroke-width="0.75" x1="-0.209" y1="379.755" x2="479.44" y2="379.755"/>
</svg>
